<svg width="24" height="24" viewBox="0 0 24 24" fill="none" xmlns="http://www.w3.org/2000/svg">
<g opacity="0.4">
<path d="M6.5 12.75H7.25V12C7.25 10.7402 7.75044 9.53204 8.64124 8.64124C9.53204 7.75044 10.7402 7.25 12 7.25C13.2598 7.25 14.468 7.75044 15.3588 8.64124C16.2496 9.53204 16.75 10.7402 16.75 12V12.75H17.5H19.1751L19.2435 13.1362L19.4239 12.75H21.9C21.9928 12.75 22.0819 12.7869 22.1475 12.8525C22.2131 12.9181 22.25 13.0072 22.25 13.1C22.25 13.1928 22.2131 13.2818 22.1475 13.3475C22.0819 13.4131 21.9928 13.45 21.9 13.45H2.1C2.00717 13.45 1.91815 13.4131 1.85251 13.3475C1.78688 13.2818 1.75 13.1928 1.75 13.1C1.75 13.0072 1.78687 12.9181 1.85251 12.8525C1.91815 12.7869 2.00717 12.75 2.1 12.75H4.56511L4.74546 13.1362L4.8139 12.75H6.5ZM18.8103 7.01819L20.3816 7.1545L19.7141 8.5837C19.5937 8.31059 19.4576 8.04109 19.3051 7.77597L19.3028 7.7721C19.1504 7.51082 18.9858 7.25918 18.8103 7.01819ZM15.3 12.75H16.05V12C16.05 10.9259 15.6233 9.89574 14.8638 9.13622C14.1043 8.37669 13.0741 7.95 12 7.95C10.9259 7.95 9.89574 8.37669 9.13622 9.13622C8.3767 9.89574 7.95 10.9259 7.95 12V12.75H8.7H15.3ZM12.5303 18.5207L12 17.9903L11.4697 18.5207L8.81867 21.1717C8.68256 21.3078 8.46444 21.3078 8.32833 21.1717C8.19222 21.0356 8.19222 20.8174 8.32833 20.6813L11.7418 17.2679C11.8451 17.1715 11.9268 17.15 12 17.15C12.0732 17.15 12.1549 17.1715 12.2582 17.2679L15.6717 20.6813C15.8078 20.8174 15.8078 21.0356 15.6717 21.1717C15.5356 21.3078 15.3174 21.3078 15.1813 21.1717L12.5303 18.5207ZM12 3.55C11.6963 3.55 11.3957 3.56626 11.0995 3.59782L12 2.30931L12.9005 3.59782C12.6043 3.56626 12.3037 3.55 12 3.55ZM4.68774 7.7694C4.52916 8.03635 4.39111 8.30505 4.27101 8.5754L3.60868 7.15718L5.17774 7.02517C5.00311 7.26196 4.83912 7.51012 4.68774 7.7694Z" stroke="black" stroke-width="1.5"/>
</g>
</svg>
