<svg width="20" height="20" viewBox="0 0 20 20" fill="none" xmlns="http://www.w3.org/2000/svg">
<g clip-path="url(#clip0_7_84)">
<path d="M5.71234 0C5.34139 0 4.97056 0.0948595 4.6396 0.285962C3.9776 0.668168 3.56963 1.37834 3.56963 2.14271H2.14116C1.74672 2.14427 1.42822 2.46528 1.42969 2.85971V19.2885C1.43125 19.6808 1.74887 19.9984 2.14116 20H17.8586C18.2508 19.9984 18.5684 19.6808 18.57 19.2885V2.85971C18.5715 2.46528 18.253 2.14427 17.8586 2.14271H7.85644C7.85639 1.37839 7.44843 0.668168 6.78647 0.285962C6.45551 0.0948595 6.0833 0 5.71234 0ZM5.71234 1.42986C5.83479 1.42986 5.95706 1.46204 6.06808 1.5261C6.29007 1.65426 6.42658 1.88634 6.42658 2.14266H4.99811C4.99811 1.88634 5.13466 1.65422 5.35661 1.5261C5.46758 1.46204 5.5899 1.42986 5.71234 1.42986ZM2.85817 3.57118H6.42658V7.14656C6.42658 7.40292 6.29003 7.63501 6.06808 7.76317C5.84608 7.89133 5.5786 7.89133 5.35661 7.76317C5.13461 7.63501 4.99811 7.40288 4.99811 7.14656V5.7167C5.00686 5.32222 4.6942 4.99537 4.29972 4.98662C3.90524 4.97787 3.57838 5.29053 3.56963 5.68501C3.56941 5.69559 3.56941 5.70612 3.56963 5.7167V7.14656C3.56963 7.91093 3.97764 8.61972 4.6396 9.00188C5.30157 9.38404 6.12455 9.38408 6.78651 9.00188C7.44847 8.61967 7.85644 7.91088 7.85648 7.14656V3.57118H17.1402V18.5715H2.85817V3.57118Z" fill="black"/>
</g>
<defs>
<clipPath id="clip0_7_84">
<rect width="20" height="20" fill="white"/>
</clipPath>
</defs>
</svg>
