<svg width="20" height="20" viewBox="0 0 20 20" fill="none" xmlns="http://www.w3.org/2000/svg">
<g clip-path="url(#clip0_150_6)">
<path d="M10.002 13.15C9.14318 13.15 8.31948 12.8181 7.71217 12.2274C7.10486 11.6366 6.76368 10.8354 6.76368 10C6.76368 9.16457 7.10486 8.36335 7.71217 7.77261C8.31948 7.18187 9.14318 6.85 10.002 6.85C10.8609 6.85 11.6846 7.18187 12.2919 7.77261C12.8992 8.36335 13.2404 9.16457 13.2404 10C13.2404 10.8354 12.8992 11.6366 12.2919 12.2274C11.6846 12.8181 10.8609 13.15 10.002 13.15ZM17.563 11.3982C17.1381 11.0731 16.9401 10.5467 16.9414 10.0118C16.9414 10.0079 16.9414 10.0039 16.9414 10C16.9414 9.98756 16.9414 9.97513 16.9413 9.96269C16.9371 9.42705 17.1404 8.90181 17.5686 8.58002L18.8289 7.633C19.0047 7.498 19.051 7.255 18.9399 7.057L17.0894 3.943C16.9784 3.745 16.7286 3.664 16.525 3.745L14.9869 4.34587C14.5099 4.53222 13.9775 4.45098 13.5362 4.19097C13.5076 4.1741 13.4788 4.15742 13.4499 4.14095C12.9783 3.87243 12.6098 3.43037 12.5327 2.89319L12.3152 1.378C12.2782 1.162 12.0839 1 11.8525 1H8.15155C7.92024 1 7.72593 1.162 7.68892 1.378L7.47143 2.89319C7.39433 3.43037 7.02578 3.87243 6.55418 4.14095C6.52524 4.15742 6.49646 4.1741 6.46784 4.19097C6.02663 4.45098 5.4942 4.53222 5.01719 4.34587L3.47905 3.745C3.27549 3.664 3.02567 3.745 2.91464 3.943L1.06415 7.057C0.943867 7.255 0.999382 7.498 1.17518 7.633L2.43547 8.58002C2.8637 8.90181 3.06696 9.42705 3.06283 9.96269C3.06273 9.97512 3.06268 9.98756 3.06268 10C3.06268 10.0039 3.06269 10.0079 3.0627 10.0118C3.06402 10.5467 2.86594 11.0731 2.44112 11.3982L1.17518 12.367C0.999382 12.502 0.943867 12.745 1.06415 12.943L2.91464 16.057C3.02567 16.255 3.27549 16.327 3.47905 16.255L5.0041 15.6533C5.48816 15.4623 6.02943 15.548 6.4772 15.8132C6.50287 15.8284 6.52867 15.8434 6.55459 15.8583C7.02539 16.1282 7.39433 16.5696 7.47143 17.1068L7.68892 18.622C7.72593 18.838 7.92024 19 8.15155 19H11.8525C12.0839 19 12.2782 18.838 12.3152 18.622L12.5346 17.0935C12.6106 16.5635 12.9707 16.126 13.4367 15.8621C13.4664 15.8452 13.496 15.8282 13.5254 15.8109C13.9742 15.5475 14.5159 15.4623 15 15.6533L16.525 16.255C16.7286 16.327 16.9784 16.255 17.0894 16.057L18.9399 12.943C19.051 12.745 19.0047 12.502 18.8289 12.367L17.563 11.3982Z" stroke="black" stroke-width="1.5"/>
</g>
<defs>
<clipPath id="clip0_150_6">
<rect width="20" height="20" fill="white"/>
</clipPath>
</defs>
</svg>
