<svg width="23" height="23" viewBox="0 0 23 23" fill="none" xmlns="http://www.w3.org/2000/svg">
<g clip-path="url(#clip0_151_7)">
<path d="M17.6403 18.6094C17.3053 18.6094 16.9937 18.397 16.8828 18.0617C16.7446 17.6435 16.9716 17.1921 17.3898 17.0541C19.7914 16.261 21.4049 14.0291 21.4049 11.4999C21.4049 9.00523 19.8185 6.78234 17.4574 5.96879C17.041 5.82523 16.8198 5.37139 16.9634 4.95476C17.1067 4.5384 17.5597 4.31696 17.9772 4.46051C20.9814 5.49579 23.0001 8.32458 23.0001 11.4998C23.0001 14.7184 20.9466 17.5594 17.8905 18.5689C17.8075 18.5964 17.723 18.6094 17.6403 18.6094Z" fill="black"/>
<path d="M19.0133 11.4999C19.0133 9.59896 17.4708 8.05242 15.572 8.04446V2.35151C15.572 1.46539 15.1091 0.676819 14.3641 0.293689C13.6806 -0.0582971 12.895 0.00177089 12.2627 0.453762L4.74352 5.84045H2.12691C0.954193 5.84045 0 6.79464 0 7.96736V15.0325C0 16.2052 0.954193 17.1594 2.12691 17.1594H4.74357L12.2633 22.5469C12.6222 22.8034 13.0306 22.9334 13.4419 22.9334C13.7546 22.9334 14.0688 22.8582 14.3642 22.7064C15.1094 22.3233 15.5721 21.5347 15.5721 20.6486V14.9554C17.4705 14.9474 19.0133 13.4006 19.0133 11.4999ZM4.20305 15.5642H2.12691C1.83365 15.5642 1.59518 15.3257 1.59518 15.0325V7.96736C1.59518 7.6741 1.83365 7.43563 2.12691 7.43563H4.20305V15.5642ZM13.9765 20.6483C13.9765 20.99 13.7997 21.2026 13.6343 21.2877C13.4833 21.3646 13.3345 21.3518 13.1914 21.2495L5.79851 15.9529V7.04695L13.1909 1.75092C13.3353 1.64827 13.4842 1.63499 13.6346 1.71209C13.8 1.79715 13.9768 2.00984 13.9768 2.35151V20.6483H13.9765ZM15.5717 13.3602V9.63964C16.591 9.6476 17.4179 10.4787 17.4179 11.4999C17.4182 12.5211 16.591 13.3522 15.5717 13.3602Z" fill="black"/>
</g>
<defs>
<clipPath id="clip0_151_7">
<rect width="23" height="23" fill="white"/>
</clipPath>
</defs>
</svg>
