<svg width="24" height="24" viewBox="0 0 24 24" fill="none" xmlns="http://www.w3.org/2000/svg">
<path d="M6.39054 22.2683C6.67524 22.2684 6.95566 22.1989 7.20729 22.0658L11.882 19.6088C11.9183 19.5894 11.9587 19.5793 11.9998 19.5793C12.0409 19.5793 12.0813 19.5894 12.1175 19.6088L16.7915 22.0658C17.0812 22.2182 17.4077 22.2865 17.7342 22.263C18.0606 22.2394 18.374 22.125 18.6388 21.9326C18.9036 21.7403 19.1092 21.4776 19.2325 21.1744C19.3558 20.8712 19.3917 20.5396 19.3363 20.217L18.4438 15.0128C18.4369 14.972 18.4402 14.9301 18.4533 14.8909C18.4663 14.8517 18.4888 14.8163 18.5188 14.7878L22.2973 11.1C22.5319 10.8714 22.6978 10.5817 22.7762 10.2637C22.8546 9.94573 22.8423 9.61211 22.7408 9.3007C22.6394 8.98929 22.4527 8.71253 22.202 8.50178C21.9512 8.29102 21.6465 8.1547 21.3223 8.10826L16.1 7.35001C16.0594 7.34409 16.0208 7.32837 15.9876 7.30419C15.9544 7.28002 15.9276 7.24812 15.9095 7.21126L13.5748 2.47501C13.4302 2.1814 13.2062 1.93414 12.9284 1.76124C12.6505 1.58834 12.3297 1.4967 12.0024 1.4967C11.6751 1.4967 11.3544 1.58834 11.0765 1.76124C10.7986 1.93414 10.5747 2.1814 10.43 2.47501L8.09379 7.20976C8.07555 7.2465 8.0487 7.2783 8.01554 7.30246C7.98237 7.32661 7.94387 7.34241 7.90329 7.34851L2.67654 8.10751C2.35248 8.15421 2.04796 8.29068 1.79742 8.50147C1.54689 8.71226 1.36034 8.98895 1.25889 9.30025C1.15744 9.61155 1.14513 9.94502 1.22336 10.263C1.30159 10.5809 1.46723 10.8706 1.70154 11.0993L5.48379 14.7848C5.51364 14.8133 5.53607 14.8488 5.54914 14.888C5.56221 14.9272 5.56552 14.969 5.55879 15.0098L4.66629 20.214C4.62336 20.4655 4.63573 20.7233 4.70256 20.9694C4.76938 21.2156 4.88905 21.4443 5.05324 21.6395C5.21743 21.8348 5.42218 21.9919 5.65326 22.1C5.88435 22.208 6.1362 22.2644 6.39129 22.2653L6.39054 22.2683ZM11.9998 18.0788C11.7153 18.0787 11.4352 18.1482 11.1838 18.2813L6.50979 20.7375C6.46843 20.7612 6.42098 20.772 6.37345 20.7687C6.32592 20.7653 6.28045 20.7479 6.24279 20.7188C6.2035 20.6918 6.17297 20.6539 6.15497 20.6098C6.13698 20.5657 6.13231 20.5173 6.14154 20.4705L7.03479 15.2655C7.08251 14.9854 7.06158 14.6979 6.9738 14.4276C6.88602 14.1573 6.73401 13.9124 6.53079 13.7138L2.74855 10.0275C2.71478 9.99444 2.69093 9.95259 2.67968 9.90669C2.66844 9.86079 2.67025 9.81266 2.68492 9.76773C2.69958 9.7228 2.72651 9.68287 2.76267 9.65243C2.79883 9.622 2.84277 9.60228 2.88955 9.59551L8.11554 8.83576C8.3969 8.79502 8.66411 8.68639 8.89409 8.51926C9.12407 8.35214 9.30991 8.13153 9.43554 7.87651L11.7748 3.14101C11.7957 3.09863 11.8281 3.06295 11.8683 3.03801C11.9084 3.01306 11.9548 2.99984 12.002 2.99984C12.0493 2.99984 12.0956 3.01306 12.1358 3.03801C12.176 3.06295 12.2083 3.09863 12.2293 3.14101L14.564 7.87501C14.6898 8.13013 14.8757 8.35079 15.1058 8.51792C15.3359 8.68506 15.6033 8.79363 15.8848 8.83426L21.11 9.59551C21.1569 9.60214 21.201 9.62179 21.2372 9.65224C21.2735 9.68269 21.3004 9.7227 21.315 9.76772C21.3297 9.81274 21.3313 9.86096 21.3199 9.90689C21.3084 9.95282 21.2843 9.99461 21.2503 10.0275L17.4688 13.7138C17.2656 13.9124 17.1136 14.1573 17.0258 14.4276C16.938 14.6979 16.9171 14.9854 16.9648 15.2655L17.858 20.4705C17.8661 20.5173 17.861 20.5654 17.8431 20.6093C17.8252 20.6533 17.7953 20.6913 17.7569 20.7192C17.7184 20.747 17.6729 20.7635 17.6256 20.7667C17.5782 20.7699 17.5309 20.7598 17.489 20.7375L12.8158 18.2805C12.5642 18.148 12.2841 18.0788 11.9998 18.0788Z" fill="#2AC1BC"/>
</svg>
